<svg xmlns="http://www.w3.org/2000/svg" xmlns:xlink="http://www.w3.org/1999/xlink" width="500" zoomAndPan="magnify" viewBox="0 0 375 374.999991" height="500" preserveAspectRatio="xMidYMid meet" version="1.0"><defs><g/><clipPath id="2cc376dae3"><path d="M 15.277344 15.277344 L 359.445312 15.277344 L 359.445312 359.445312 L 15.277344 359.445312 Z M 15.277344 15.277344 " clip-rule="nonzero"/></clipPath><clipPath id="2b6ac48e81"><path d="M 45.636719 178.632812 L 64.386719 178.632812 L 64.386719 196.632812 L 45.636719 196.632812 Z M 45.636719 178.632812 " clip-rule="nonzero"/></clipPath><clipPath id="98327250bf"><path d="M 310.742188 178.632812 L 329.492188 178.632812 L 329.492188 196.632812 L 310.742188 196.632812 Z M 310.742188 178.632812 " clip-rule="nonzero"/></clipPath><clipPath id="28dd97dee9"><path d="M 89.539062 89.539062 L 285.289062 89.539062 L 285.289062 285.289062 L 89.539062 285.289062 Z M 89.539062 89.539062 " clip-rule="nonzero"/></clipPath><clipPath id="197f46edd7"><path d="M 97.695312 97.695312 L 276.945312 97.695312 L 276.945312 276.945312 L 97.695312 276.945312 Z M 97.695312 97.695312 " clip-rule="nonzero"/></clipPath></defs><path fill="#1c2738" d="M 187.5 0 C 83.945312 0 0 83.945312 0 187.5 C 0 291.054688 83.945312 375 187.5 375 C 291.054688 375 375 291.054688 375 187.5 C 375 83.945312 291.054688 0 187.5 0 " fill-opacity="1" fill-rule="nonzero"/><g clip-path="url(#2cc376dae3)"><path fill="#ffb703" d="M 187.363281 359.445312 C 141.417969 359.445312 98.15625 341.5625 65.695312 309.03125 C 33.160156 276.566406 15.277344 233.304688 15.277344 187.363281 C 15.277344 141.417969 33.160156 98.15625 65.695312 65.695312 C 98.15625 33.160156 141.417969 15.277344 187.363281 15.277344 C 233.304688 15.277344 276.566406 33.160156 309.03125 65.695312 C 341.5625 98.226562 359.445312 141.417969 359.445312 187.363281 C 359.445312 233.304688 341.5625 276.566406 309.03125 309.03125 C 276.566406 341.5625 233.304688 359.445312 187.363281 359.445312 Z M 187.363281 25.597656 C 144.167969 25.597656 103.523438 42.445312 72.984375 72.984375 C 42.445312 103.523438 25.597656 144.167969 25.597656 187.363281 C 25.597656 230.554688 42.445312 271.203125 72.984375 301.742188 C 103.523438 332.277344 144.167969 349.128906 187.363281 349.128906 C 230.554688 349.128906 271.203125 332.277344 301.742188 301.742188 C 332.277344 271.203125 349.128906 230.554688 349.128906 187.363281 C 349.128906 144.167969 332.277344 103.523438 301.742188 72.984375 C 271.203125 42.445312 230.554688 25.597656 187.363281 25.597656 Z M 187.363281 25.597656 " fill-opacity="1" fill-rule="nonzero"/></g><g clip-path="url(#2b6ac48e81)"><path fill="#e9f6ee" d="M 55.035156 178.691406 L 57.925781 184.59375 L 64.386719 185.542969 L 59.710938 190.140625 L 60.816406 196.628906 L 55.035156 193.566406 L 49.253906 196.628906 L 50.355469 190.140625 L 45.683594 185.542969 L 52.144531 184.59375 Z M 55.035156 178.691406 " fill-opacity="1" fill-rule="nonzero"/><path fill="#e9f6ee" d="M 54.992188 178.632812 L 57.882812 184.539062 L 64.347656 185.484375 L 59.667969 190.082031 L 60.773438 196.574219 L 54.992188 193.507812 L 49.210938 196.574219 L 50.316406 190.082031 L 45.636719 185.484375 L 52.097656 184.539062 Z M 54.992188 178.632812 " fill-opacity="1" fill-rule="nonzero"/><path fill="#e9f6ee" d="M 54.992188 178.632812 L 57.882812 184.539062 L 64.347656 185.484375 L 59.667969 190.082031 L 60.773438 196.574219 L 54.992188 193.507812 L 49.210938 196.574219 L 50.316406 190.082031 L 45.636719 185.484375 L 52.097656 184.539062 Z M 54.992188 178.632812 " fill-opacity="1" fill-rule="nonzero"/><path fill="#e9f6ee" d="M 54.992188 178.632812 L 57.882812 184.539062 L 64.347656 185.484375 L 59.667969 190.082031 L 60.773438 196.574219 L 54.992188 193.507812 L 49.210938 196.574219 L 50.316406 190.082031 L 45.636719 185.484375 L 52.097656 184.539062 Z M 54.992188 178.632812 " fill-opacity="1" fill-rule="nonzero"/></g><g clip-path="url(#98327250bf)"><path fill="#e9f6ee" d="M 320.140625 178.691406 L 323.027344 184.59375 L 329.492188 185.542969 L 324.8125 190.140625 L 325.921875 196.628906 L 320.140625 193.566406 L 314.355469 196.628906 L 315.460938 190.140625 L 310.785156 185.542969 L 317.246094 184.59375 Z M 320.140625 178.691406 " fill-opacity="1" fill-rule="nonzero"/><path fill="#e9f6ee" d="M 320.09375 178.632812 L 322.988281 184.539062 L 329.449219 185.484375 L 324.773438 190.082031 L 325.875 196.574219 L 320.09375 193.507812 L 314.316406 196.574219 L 315.417969 190.082031 L 310.742188 185.484375 L 317.203125 184.539062 Z M 320.09375 178.632812 " fill-opacity="1" fill-rule="nonzero"/><path fill="#e9f6ee" d="M 320.09375 178.632812 L 322.988281 184.539062 L 329.449219 185.484375 L 324.773438 190.082031 L 325.875 196.574219 L 320.09375 193.507812 L 314.316406 196.574219 L 315.417969 190.082031 L 310.742188 185.484375 L 317.203125 184.539062 Z M 320.09375 178.632812 " fill-opacity="1" fill-rule="nonzero"/><path fill="#e9f6ee" d="M 320.09375 178.632812 L 322.988281 184.539062 L 329.449219 185.484375 L 324.773438 190.082031 L 325.875 196.574219 L 320.09375 193.507812 L 314.316406 196.574219 L 315.417969 190.082031 L 310.742188 185.484375 L 317.203125 184.539062 Z M 320.09375 178.632812 " fill-opacity="1" fill-rule="nonzero"/></g><g fill="#e9f6ee" fill-opacity="1"><g transform="translate(127.483559, 313.791973)"><g><path d="M 6.734375 2.640625 L 6.453125 -16.171875 L 8.359375 -15.421875 L 8.53125 1.421875 L 20.171875 -10.78125 L 21.984375 -10.0625 L 8.890625 3.484375 Z M 6.734375 2.640625 "/></g></g></g><g fill="#e9f6ee" fill-opacity="1"><g transform="translate(146.485352, 320.760979)"><g><path d="M 1.859375 0.515625 L 6.515625 -16.25 L 8.34375 -15.734375 L 3.6875 1.03125 Z M 1.859375 0.515625 "/></g></g></g><g fill="#e9f6ee" fill-opacity="1"><g transform="translate(155.288191, 323.357275)"><g><path d="M 4.71875 -16.859375 L 6.609375 -16.546875 L 14.640625 -0.90625 L 16.9375 -14.84375 L 18.71875 -14.5625 L 15.890625 2.609375 L 14.234375 2.34375 L 6.046875 -13.703125 L 3.6875 0.609375 L 1.890625 0.3125 Z M 4.71875 -16.859375 "/></g></g></g><g fill="#e9f6ee" fill-opacity="1"><g transform="translate(176.820145, 326.544067)"><g><path d="M 6.984375 0.125 L 7.109375 -6.953125 L 0.375 -17.40625 L 2.609375 -17.359375 L 8.15625 -8.640625 L 13.96875 -17.171875 L 16.125 -17.140625 L 9.03125 -6.859375 L 8.90625 0.15625 Z M 6.984375 0.125 "/></g></g></g><g fill="#e9f6ee" fill-opacity="1"><g transform="translate(196.351419, 326.605428)"><g><path d="M 1.90625 -0.21875 L -0.125 -17.5 L 1.765625 -17.734375 L 3.59375 -2.15625 L 13.890625 -3.359375 L 14.09375 -1.65625 Z M 1.90625 -0.21875 "/></g></g></g><g fill="#e9f6ee" fill-opacity="1"><g transform="translate(214.839607, 324.193508)"><g><path d="M 1.859375 -0.46875 L -2.4375 -17.328125 L 9.625 -20.40625 L 10.03125 -18.78125 L -0.1875 -16.1875 L 1.328125 -10.28125 L 8.015625 -11.984375 L 8.421875 -10.359375 L 1.734375 -8.65625 L 3.28125 -2.59375 L 13.59375 -5.21875 L 14.015625 -3.578125 Z M 1.859375 -0.46875 "/></g></g></g><g fill="#e9f6ee" fill-opacity="1"><g transform="translate(233.126396, 319.268965)"><g><path d="M -0.84375 -2.875 L -0.15625 -4.5625 C 1.019531 -4.03125 2.171875 -3.722656 3.296875 -3.640625 C 4.421875 -3.566406 5.503906 -3.738281 6.546875 -4.15625 C 7.804688 -4.664062 8.722656 -5.382812 9.296875 -6.3125 C 9.878906 -7.25 9.984375 -8.175781 9.609375 -9.09375 C 9.273438 -9.914062 8.726562 -10.429688 7.96875 -10.640625 C 7.21875 -10.859375 6.140625 -10.8125 4.734375 -10.5 L 2.25 -9.921875 C 0.601562 -9.554688 -0.722656 -9.554688 -1.734375 -9.921875 C -2.742188 -10.296875 -3.476562 -11.050781 -3.9375 -12.1875 C -4.46875 -13.519531 -4.375 -14.8125 -3.65625 -16.0625 C -2.945312 -17.320312 -1.742188 -18.289062 -0.046875 -18.96875 C 1.066406 -19.425781 2.25 -19.691406 3.5 -19.765625 C 4.757812 -19.835938 5.984375 -19.707031 7.171875 -19.375 L 6.703125 -17.59375 C 5.566406 -17.894531 4.472656 -18.03125 3.421875 -18 C 2.378906 -17.976562 1.398438 -17.78125 0.484375 -17.40625 C -0.660156 -16.945312 -1.484375 -16.304688 -1.984375 -15.484375 C -2.492188 -14.671875 -2.582031 -13.847656 -2.25 -13.015625 C -1.945312 -12.265625 -1.460938 -11.789062 -0.796875 -11.59375 C -0.128906 -11.40625 0.828125 -11.453125 2.078125 -11.734375 L 4.53125 -12.28125 C 6.382812 -12.695312 7.859375 -12.710938 8.953125 -12.328125 C 10.046875 -11.941406 10.84375 -11.128906 11.34375 -9.890625 C 11.625 -9.179688 11.734375 -8.46875 11.671875 -7.75 C 11.617188 -7.039062 11.40625 -6.363281 11.03125 -5.71875 C 10.65625 -5.082031 10.132812 -4.488281 9.46875 -3.9375 C 8.800781 -3.394531 8.015625 -2.941406 7.109375 -2.578125 C 5.835938 -2.066406 4.503906 -1.832031 3.109375 -1.875 C 1.722656 -1.914062 0.40625 -2.25 -0.84375 -2.875 Z M -0.84375 -2.875 "/></g></g></g><g clip-path="url(#28dd97dee9)"><path fill="#ffb703" d="M 187.414062 89.539062 C 133.359375 89.539062 89.539062 133.359375 89.539062 187.414062 C 89.539062 241.46875 133.359375 285.289062 187.414062 285.289062 C 241.46875 285.289062 285.289062 241.46875 285.289062 187.414062 C 285.289062 133.359375 241.46875 89.539062 187.414062 89.539062 " fill-opacity="1" fill-rule="nonzero"/></g><g fill="#e9f6ee" fill-opacity="1"><g transform="translate(120.341539, 90.60868)"><g><path d="M 1.640625 -1.03125 L -9.765625 -19.265625 L -5.984375 -21.625 L 5.421875 -3.390625 Z M 1.640625 -1.03125 "/></g></g></g><g fill="#e9f6ee" fill-opacity="1"><g transform="translate(128.29672, 84.888681)"><g><path d="M 11.84375 -6.65625 L -0.59375 -16.9375 L 5.5625 -2.359375 L 1.78125 -0.75 L -6.59375 -20.5625 L -1.328125 -22.796875 L 8.609375 -14.453125 L 9.546875 -27.390625 L 14.8125 -29.609375 L 23.1875 -9.796875 L 19.296875 -8.15625 L 13.140625 -22.703125 Z M 11.84375 -6.65625 "/></g></g></g><g fill="#e9f6ee" fill-opacity="1"><g transform="translate(154.121623, 74.329706)"><g><path d="M -0.125 0.015625 L 4.578125 -22.765625 L 9.640625 -23.71875 L 22.234375 -4.203125 L 17.484375 -3.3125 L 14.296875 -8.46875 L 5.5625 -6.8125 L 4.4375 -0.84375 Z M 6.25 -10.5625 L 12.296875 -11.71875 L 7.828125 -18.9375 Z M 6.25 -10.5625 "/></g></g></g><g fill="#e9f6ee" fill-opacity="1"><g transform="translate(177.137695, 69.972602)"><g><path d="M 23.46875 -10.359375 C 23.4375 -8.785156 23.140625 -7.316406 22.578125 -5.953125 C 22.015625 -4.597656 21.25 -3.441406 20.28125 -2.484375 C 19.3125 -1.535156 18.15625 -0.785156 16.8125 -0.234375 C 15.476562 0.304688 14.046875 0.5625 12.515625 0.53125 C 10.910156 0.507812 9.414062 0.203125 8.03125 -0.390625 C 6.644531 -0.992188 5.453125 -1.796875 4.453125 -2.796875 C 3.453125 -3.804688 2.664062 -4.992188 2.09375 -6.359375 C 1.519531 -7.722656 1.25 -9.179688 1.28125 -10.734375 C 1.300781 -12.296875 1.613281 -13.75 2.21875 -15.09375 C 2.820312 -16.4375 3.640625 -17.59375 4.671875 -18.5625 C 5.703125 -19.539062 6.914062 -20.304688 8.3125 -20.859375 C 9.71875 -21.421875 11.210938 -21.691406 12.796875 -21.671875 C 14.578125 -21.640625 16.25 -21.25 17.8125 -20.5 C 19.382812 -19.757812 20.671875 -18.757812 21.671875 -17.5 L 18.515625 -14.6875 C 17.773438 -15.59375 16.910156 -16.296875 15.921875 -16.796875 C 14.941406 -17.296875 13.878906 -17.554688 12.734375 -17.578125 C 11.765625 -17.585938 10.863281 -17.421875 10.03125 -17.078125 C 9.195312 -16.734375 8.472656 -16.25 7.859375 -15.625 C 7.242188 -15.007812 6.757812 -14.28125 6.40625 -13.4375 C 6.050781 -12.59375 5.867188 -11.664062 5.859375 -10.65625 C 5.835938 -9.65625 5.992188 -8.722656 6.328125 -7.859375 C 6.671875 -6.992188 7.144531 -6.242188 7.75 -5.609375 C 8.351562 -4.972656 9.078125 -4.46875 9.921875 -4.09375 C 10.765625 -3.726562 11.671875 -3.535156 12.640625 -3.515625 C 14.148438 -3.492188 15.457031 -3.894531 16.5625 -4.71875 C 17.675781 -5.539062 18.375 -6.609375 18.65625 -7.921875 L 12.296875 -8.015625 L 12.359375 -11.890625 L 23.484375 -11.71875 Z M 23.46875 -10.359375 "/></g></g></g><g fill="#e9f6ee" fill-opacity="1"><g transform="translate(202.942524, 71.078006)"><g><path d="M 1.90625 0.3125 L 5.421875 -20.90625 L 9.8125 -20.171875 L 6.296875 1.046875 Z M 1.90625 0.3125 "/></g></g></g><g fill="#e9f6ee" fill-opacity="1"><g transform="translate(212.795227, 72.289686)"><g><path d="M 8.359375 -19.90625 L 12.390625 -18.625 L 18.375 -2.125 L 22.59375 -15.390625 L 26.578125 -14.125 L 20.0625 6.375 L 16.328125 5.1875 L 10.21875 -11.859375 L 5.859375 1.859375 L 1.84375 0.59375 Z M 8.359375 -19.90625 "/></g></g></g><g fill="#e9f6ee" fill-opacity="1"><g transform="translate(235.619187, 79.667832)"><g><path d="M -0.109375 -0.0625 L 18.046875 -14.609375 L 22.5625 -12.109375 L 19.796875 10.9375 L 15.578125 8.609375 L 16.390625 2.59375 L 8.625 -1.703125 L 3.953125 2.1875 Z M 11.546875 -4.140625 L 16.9375 -1.15625 L 18.109375 -9.59375 Z M 11.546875 -4.140625 "/></g></g></g><g clip-path="url(#197f46edd7)"><path fill="#1c2738" d="M 187.320312 98.671875 L 187.320312 97.6875 C 137.820312 97.6875 97.691406 137.820312 97.6875 187.324219 C 97.691406 236.824219 137.820312 276.949219 187.320312 276.949219 C 236.820312 276.949219 276.949219 236.824219 276.949219 187.324219 C 276.949219 137.820312 236.820312 97.6875 187.320312 97.6875 L 187.320312 99.65625 C 211.53125 99.65625 233.4375 109.46875 249.304688 125.335938 C 265.171875 141.203125 274.980469 163.113281 274.980469 187.324219 C 274.980469 211.53125 265.171875 233.441406 249.304688 249.308594 C 233.4375 265.171875 211.53125 274.980469 187.320312 274.980469 C 163.109375 274.980469 141.199219 265.171875 125.332031 249.308594 C 109.46875 233.441406 99.65625 211.535156 99.65625 187.324219 C 99.65625 163.113281 109.46875 141.203125 125.332031 125.335938 C 141.199219 109.46875 163.109375 99.65625 187.320312 99.65625 L 187.320312 98.671875 " fill-opacity="1" fill-rule="nonzero"/></g><path fill="#1c2738" d="M 187.320312 198.347656 L 187.320312 197.363281 C 184.542969 197.363281 182.042969 196.242188 180.222656 194.421875 C 178.402344 192.601562 177.28125 190.097656 177.28125 187.324219 C 177.28125 184.546875 178.402344 182.042969 180.222656 180.222656 C 182.042969 178.402344 184.542969 177.28125 187.320312 177.28125 C 190.09375 177.28125 192.597656 178.402344 194.417969 180.222656 C 196.238281 182.042969 197.359375 184.546875 197.359375 187.324219 C 197.359375 190.097656 196.238281 192.601562 194.417969 194.421875 C 192.597656 196.242188 190.09375 197.363281 187.320312 197.363281 L 187.320312 199.332031 C 193.953125 199.332031 199.328125 193.957031 199.328125 187.324219 C 199.328125 180.691406 193.953125 175.316406 187.320312 175.3125 C 180.6875 175.316406 175.3125 180.691406 175.3125 187.324219 C 175.3125 193.957031 180.6875 199.332031 187.320312 199.332031 Z M 187.320312 145.738281 L 187.320312 144.753906 C 163.808594 144.753906 144.75 163.8125 144.746094 187.324219 C 144.75 210.835938 163.808594 229.890625 187.320312 229.890625 C 210.832031 229.890625 229.890625 210.835938 229.890625 187.324219 C 229.890625 163.816406 210.832031 144.753906 187.320312 144.753906 L 187.320312 146.722656 C 198.535156 146.722656 208.679688 151.265625 216.03125 158.613281 C 223.378906 165.964844 227.921875 176.109375 227.921875 187.324219 C 227.921875 198.539062 223.378906 208.683594 216.03125 216.03125 C 208.679688 223.378906 198.535156 227.921875 187.320312 227.921875 C 176.105469 227.921875 165.960938 223.378906 158.609375 216.03125 C 151.261719 208.683594 146.71875 198.539062 146.71875 187.324219 C 146.71875 176.109375 151.261719 165.964844 158.609375 158.613281 C 165.960938 151.265625 176.105469 146.722656 187.320312 146.722656 L 187.320312 145.738281 " fill-opacity="1" fill-rule="nonzero"/><path fill="#1c2738" d="M 113.628906 212.726562 C 119.925781 230.839844 132.742188 245.96875 149.257812 255.273438 C 149.730469 255.539062 150.332031 255.375 150.597656 254.898438 C 150.863281 254.425781 150.695312 253.824219 150.222656 253.558594 C 134.121094 244.488281 121.625 229.734375 115.488281 212.078125 C 115.308594 211.5625 114.75 211.292969 114.238281 211.472656 C 113.722656 211.652344 113.449219 212.210938 113.628906 212.726562 " fill-opacity="1" fill-rule="nonzero"/><path fill="#1c2738" d="M 108.710938 214.441406 C 115.414062 233.804688 129.066406 249.9375 146.703125 259.835938 C 147.179688 260.101562 147.78125 259.933594 148.046875 259.457031 C 148.3125 258.984375 148.144531 258.382812 147.667969 258.117188 C 130.449219 248.453125 117.113281 232.699219 110.574219 213.796875 C 110.394531 213.285156 109.835938 213.015625 109.320312 213.191406 C 108.804688 213.371094 108.535156 213.929688 108.710938 214.445312 " fill-opacity="1" fill-rule="nonzero"/><path fill="#1c2738" d="M 140.964844 203.164062 C 144.898438 214.636719 152.949219 224.1875 163.394531 230.035156 C 163.871094 230.300781 164.46875 230.128906 164.734375 229.65625 C 165 229.183594 164.832031 228.582031 164.355469 228.316406 C 154.328125 222.703125 146.601562 213.535156 142.828125 202.527344 C 142.652344 202.011719 142.09375 201.738281 141.578125 201.914062 C 141.0625 202.09375 140.789062 202.652344 140.964844 203.164062 " fill-opacity="1" fill-rule="nonzero"/><path fill="#1c2738" d="M 124.585938 208.890625 C 129.910156 224.421875 140.777344 237.304688 154.910156 245.191406 C 155.382812 245.457031 155.984375 245.285156 156.25 244.8125 C 156.515625 244.335938 156.34375 243.738281 155.871094 243.472656 C 142.160156 235.820312 131.613281 223.320312 126.449219 208.25 C 126.273438 207.738281 125.714844 207.464844 125.199219 207.640625 C 124.6875 207.816406 124.410156 208.375 124.585938 208.890625 " fill-opacity="1" fill-rule="nonzero"/><path fill="#1c2738" d="M 130.230469 206.921875 C 135.089844 221.003906 145.007812 232.746094 157.839844 239.949219 C 158.3125 240.214844 158.914062 240.050781 159.179688 239.574219 C 159.445312 239.101562 159.277344 238.5 158.804688 238.234375 C 146.390625 231.265625 136.789062 219.898438 132.089844 206.277344 C 131.910156 205.765625 131.351562 205.492188 130.839844 205.667969 C 130.324219 205.847656 130.050781 206.40625 130.230469 206.921875 " fill-opacity="1" fill-rule="nonzero"/><path fill="#1c2738" d="M 135.835938 204.957031 C 138.425781 212.519531 142.667969 219.417969 148.375 225.261719 C 152.074219 229.058594 156.234375 232.238281 160.742188 234.769531 C 161.214844 235.035156 161.816406 234.867188 162.082031 234.390625 C 162.347656 233.917969 162.179688 233.316406 161.707031 233.050781 C 157.363281 230.613281 153.351562 227.546875 149.78125 223.886719 C 144.277344 218.25 140.191406 211.605469 137.699219 204.320312 C 137.523438 203.808594 136.960938 203.53125 136.449219 203.707031 C 135.933594 203.882812 135.660156 204.445312 135.835938 204.957031 " fill-opacity="1" fill-rule="nonzero"/><path fill="#1c2738" d="M 118.820312 210.90625 C 122.324219 221.015625 128.039062 230.332031 135.617188 238.046875 C 140.460938 242.976562 145.972656 247.148438 151.941406 250.488281 C 152.414062 250.75 153.015625 250.582031 153.28125 250.109375 C 153.546875 249.636719 153.375 249.035156 152.902344 248.769531 C 147.09375 245.515625 141.730469 241.457031 137.019531 236.664062 C 129.652344 229.164062 124.089844 220.097656 120.683594 210.261719 C 120.503906 209.75 119.945312 209.476562 119.429688 209.65625 C 118.917969 209.835938 118.644531 210.394531 118.820312 210.910156 " fill-opacity="1" fill-rule="nonzero"/><path fill="#1c2738" d="M 234.835938 160.558594 C 228.355469 149.054688 217.820312 140.148438 205.203125 135.761719 C 204.6875 135.585938 204.128906 135.855469 203.949219 136.371094 C 203.769531 136.882812 204.042969 137.445312 204.554688 137.621094 C 216.714844 141.847656 226.875 150.4375 233.121094 161.523438 C 233.390625 161.996094 233.988281 162.164062 234.464844 161.898438 C 234.9375 161.628906 235.105469 161.03125 234.835938 160.558594 " fill-opacity="1" fill-rule="nonzero"/><path fill="#1c2738" d="M 259.898438 146.523438 C 256.085938 139.734375 251.335938 133.453125 245.726562 127.933594 C 236.90625 119.25 226.242188 112.6875 214.675781 108.65625 C 214.160156 108.476562 213.601562 108.75 213.421875 109.261719 C 213.242188 109.777344 213.515625 110.335938 214.027344 110.515625 C 225.324219 114.453125 235.738281 120.859375 244.347656 129.335938 C 249.820312 134.722656 254.457031 140.855469 258.183594 147.488281 C 258.449219 147.960938 259.050781 148.132812 259.523438 147.863281 C 259.996094 147.597656 260.167969 147 259.898438 146.523438 " fill-opacity="1" fill-rule="nonzero"/><path fill="#1c2738" d="M 250.617188 151.722656 C 242.003906 136.398438 227.992188 124.554688 211.160156 118.714844 C 210.644531 118.539062 210.082031 118.808594 209.90625 119.320312 C 209.726562 119.835938 210 120.398438 210.511719 120.574219 C 226.886719 126.253906 240.523438 137.78125 248.898438 152.6875 C 249.164062 153.160156 249.765625 153.328125 250.242188 153.0625 C 250.714844 152.796875 250.882812 152.195312 250.617188 151.722656 " fill-opacity="1" fill-rule="nonzero"/><path fill="#1c2738" d="M 255.386719 149.054688 C 251.804688 142.667969 247.332031 136.769531 242.066406 131.589844 C 233.804688 123.464844 223.8125 117.316406 212.96875 113.535156 C 212.457031 113.359375 211.894531 113.632812 211.714844 114.144531 C 211.539062 114.65625 211.808594 115.21875 212.320312 115.398438 C 222.890625 119.078125 232.636719 125.078125 240.683594 132.996094 C 245.816406 138.039062 250.179688 143.792969 253.671875 150.015625 C 253.9375 150.492188 254.539062 150.660156 255.011719 150.394531 C 255.484375 150.128906 255.65625 149.527344 255.390625 149.054688 " fill-opacity="1" fill-rule="nonzero"/><path fill="#1c2738" d="M 230.148438 163.183594 C 224.328125 152.785156 214.859375 144.804688 203.414062 140.871094 C 202.898438 140.695312 202.339844 140.96875 202.164062 141.484375 C 201.984375 142 202.257812 142.558594 202.773438 142.734375 C 213.757812 146.507812 222.84375 154.164062 228.429688 164.148438 C 228.695312 164.621094 229.296875 164.789062 229.769531 164.523438 C 230.242188 164.261719 230.414062 163.660156 230.148438 163.183594 " fill-opacity="1" fill-rule="nonzero"/><path fill="#1c2738" d="M 240.078125 157.628906 C 232.914062 144.820312 221.25 134.976562 207.167969 130.128906 C 206.652344 129.953125 206.09375 130.226562 205.914062 130.738281 C 205.738281 131.253906 206.011719 131.8125 206.527344 131.992188 C 220.152344 136.679688 231.433594 146.199219 238.359375 158.585938 C 238.625 159.0625 239.226562 159.230469 239.699219 158.964844 C 240.175781 158.699219 240.34375 158.101562 240.078125 157.628906 " fill-opacity="1" fill-rule="nonzero"/><path fill="#1c2738" d="M 245.222656 154.742188 C 237.3125 140.75 224.46875 129.890625 209.128906 124.53125 C 208.613281 124.351562 208.054688 124.621094 207.875 125.136719 C 207.695312 125.648438 207.964844 126.210938 208.480469 126.390625 C 223.359375 131.585938 235.835938 142.132812 243.507812 155.710938 C 243.773438 156.183594 244.375 156.351562 244.847656 156.082031 C 245.324219 155.8125 245.488281 155.214844 245.222656 154.742188 " fill-opacity="1" fill-rule="nonzero"/></svg>